#!OML:ASF E:\motion texture\Top Level 1\Subject 1\Session 1\male.ASF
:FULLY-SPECIFIED
:DEGREES
427
root -18.6686 18.1213 4.01403 114.184 -81.3387 -106.847
lowerback 1.09904 2.13442 5.28059
upperback -1.49465 2.91981 4.68661
thorax -2.13758 1.35631 1.79107
lowerneck -16.0132 2.35695 -0.34672
upperneck 12.5917 2.71335 3.34578
head 6.40128 1.57548 1.40208
rclavicle -6.65929e-015 -7.95139e-015
rhumerus -28.2357 -16.7043 -75.5984
rradius 23.4628
rwrist 17.3796
rhand -15.6923 -31.1426
rfingers 7.12502
rthumb 10.4969 -60.8605
lclavicle -6.65929e-015 -7.95139e-015
lhumerus -35.1689 16.5627 77.5181
lradius 33.5289
lwrist -28.0741
lhand -13.6212 17.7072
lfingers 7.12502
lthumb 12.4943 47.3137
rfemur -11.6573 2.48059 30.669
rtibia 14.3268
rfoot -5.2724 -11.2283
rtoes 14.3816
lfemur -22.1403 1.04947 -5.20915
ltibia 52.0654
lfoot -2.38503 4.22292
ltoes -21.0537
428
root -18.7802 18.1198 4.00563 114.448 -81.233 -107.111
lowerback 1.10354 2.20214 5.4091
upperback -1.50158 3.01267 4.66233
thorax -2.13898 1.39992 1.69224
lowerneck -16.033 2.29196 -0.405733
upperneck 12.6605 2.62372 3.42707
head 6.42661 1.53648 1.43014
rclavicle 4.91992e-015 -7.15625e-015
rhumerus -27.5133 -15.8261 -76.299
rradius 23.9379
rwrist 16.8752
rhand -15.7634 -31.045
rfingers 7.12502
rthumb 10.4284 -60.7664
lclavicle 4.91992e-015 -7.15625e-015
lhumerus -35.1641 16.332 77.9218
lradius 33.5334
lwrist -28.1395
lhand -13.6306 17.6049
lfingers 7.12502
lthumb 12.4853 47.212
rfemur -11.2198 2.56698 30.8164
rtibia 14.3026
rfoot -5.61179 -11.2698
rtoes 14.0454
lfemur -22.7647 1.10473 -4.99407
ltibia 51.6584
lfoot -2.83799 4.50441
ltoes -20.7096
429
root -18.8921 18.1178 3.99809 114.665 -81.1374 -107.323
lowerback 1.10216 2.27036 5.53212
upperback -1.51103 3.10587 4.63323
thorax -2.13921 1.44384 1.59176
lowerneck -16.0579 2.22205 -0.471742
upperneck 12.7334 2.528 3.51341
head 6.45427 1.49471 1.46048
rclavicle 7.50412e-015 -1.03368e-014
rhumerus -26.8233 -14.9448 -76.9549
rradius 24.4312
rwrist 16.3741
rhand -15.8272 -30.9484
rfingers 7.12502
rthumb 10.3668 -60.6728
lclavicle 7.50412e-015 -1.03368e-014
lhumerus -35.1665 16.0968 78.3177
lradius 33.5574
lwrist -28.1871
lhand -13.6372 17.5037
lfingers 7.12502
lthumb 12.4789 47.1111
rfemur -10.7833 2.6512 30.9505
rtibia 14.2733
rfoot -5.94832 -11.3226
rtoes 13.7069
lfemur -23.3571 1.13976 -4.7874
ltibia 51.1245
lfoot -3.29638 4.78649
ltoes -20.3738
430
root -19.0043 18.1156 3.99138 114.832 -81.0512 -107.481
lowerback 1.09469 2.33857 5.65018
upperback -1.52306 3.1987 4.59981
thorax -2.13824 1.48768 1.48986
lowerneck -16.0856 2.14739 -0.543911
upperneck 12.8085 2.42649 3.60352
head 6.48326 1.45022 1.49253
rclavicle -7.35503e-015 -1.11319e-014
rhumerus -26.1663 -14.0668 -77.5655
rradius 24.9426
rwrist 15.8799
rhand -15.8822 -30.8514
rfingers 7.12502
rthumb 10.3138 -60.5785
lclavicle -7.35503e-015 -1.11319e-014
lhumerus -35.1767 15.8596 78.7036
lradius 33.5987
lwrist -28.217
lhand -13.6416 17.4018
lfingers 7.12502
lthumb 12.4746 47.0095
rfemur -10.3484 2.73429 31.0729
rtibia 14.2391
rfoot -6.28123 -11.3884
rtoes 13.3683
lfemur -23.9174 1.15558 -4.58762
ltibia 50.4666
lfoot -3.75189 5.06815
ltoes -20.0473
431
root -19.1169 18.1129 3.98549 114.952 -80.9751 -107.587
lowerback 1.08134 2.4066 5.76246
upperback -1.5396 3.29102 4.56193
thorax -2.13819 1.53134 1.38683
lowerneck -16.1129 2.06821 -0.622327
upperneck 12.8862 2.31949 3.69764
head 6.51319 1.40315 1.52635
rclavicle 4.96962e-015 -2.78299e-014
rhumerus -25.5457 -13.196 -78.1302
rradius 25.4712
rwrist 15.3943
rhand -15.9296 -30.7506
rfingers 7.12502
rthumb 10.2681 -60.4799
lclavicle 4.96962e-015 -2.78299e-014
lhumerus -35.1983 15.622 79.0769
lradius 33.6556
lwrist -28.2326
lhand -13.6382 17.309
lfingers 7.12502
lthumb 12.478 46.9165
rfemur -9.91665 2.81415 31.1833
rtibia 14.2018
rfoot -6.60905 -11.4655
rtoes 13.0184
lfemur -24.4461 1.15317 -4.39546
ltibia 49.6877
lfoot -4.19491 5.34557
ltoes -19.7316
432
root -19.2301 18.1098 3.98046 115.035 -80.9083 -107.652
lowerback 1.06106 2.4745 5.86962
upperback -1.55794 3.38263 4.51983
thorax -2.1357 1.57478 1.28269
lowerneck -16.1476 1.98485 -0.706983
upperneck 12.9683 2.20742 3.79552
head 6.54602 1.35377 1.56206
rclavicle 2.43511e-015 -2.70347e-014
rhumerus -24.9575 -12.3352 -78.6508
rradius 26.0175
rwrist 14.9165
rhand -15.9684 -30.6484
rfingers 7.12502
rthumb 10.2306 -60.3797
lclavicle 2.43511e-015 -2.70347e-014
lhumerus -35.2269 15.3887 79.4367
lradius 33.7254
lwrist -28.2357
lhand -13.6294 17.2169
lfingers 7.12502
lthumb 12.4864 46.8238
rfemur -9.48703 2.89011 31.2822
rtibia 14.1623
rfoot -6.93381 -11.5517
rtoes 12.657
lfemur -24.9406 1.13437 -4.21058
ltibia 48.7907
lfoot -4.61904 5.61745
ltoes -19.4322
433
root -19.3437 18.1063 3.9763 115.08 -80.8515 -107.674
lowerback 1.03525 2.54189 5.97084
upperback -1.57951 3.47322 4.47324
thorax -2.13307 1.61782 1.17754
lowerneck -16.1874 1.8974 -0.79691
upperneck 13.0551 2.09023 3.8966
head 6.58148 1.30204 1.59927
rclavicle -2.04748e-014 -4.92986e-014
rhumerus -24.4026 -11.4898 -79.1277
rradius 26.5791
rwrist 14.4485
rhand -16.0002 -30.5415
rfingers 7.12502
rthumb 10.2 -60.2742
lclavicle -2.04748e-014 -4.92986e-014
lhumerus -35.2642 15.1604 79.781
lradius 33.8062
lwrist -28.2251
lhand -13.6194 17.1263
lfingers 7.12502
lthumb 12.496 46.7326
rfemur -9.06033 2.96299 31.3691
rtibia 14.121
rfoot -7.25511 -11.6475
rtoes 12.2865
lfemur -25.4027 1.10004 -4.0339
ltibia 47.7831
lfoot -5.0203 5.8804
ltoes -19.15
434
root -19.458 18.1022 3.97298 115.088 -80.8047 -107.653
lowerback 1.00287 2.60828 6.06576
upperback -1.60381 3.56197 4.42274
thorax -2.12929 1.66007 1.07226
lowerneck -16.2311 1.80669 -0.89186
upperneck 13.1448 1.96925 3.99992
head 6.61882 1.24851 1.63771
rclavicle -3.3048e-014 2.06736e-014
rhumerus -23.8801 -10.6623 -79.562
rradius 27.1553
rwrist 13.9912
rhand -16.0212 -30.4369
rfingers 7.12502
rthumb 10.1797 -60.1707
lclavicle -3.3048e-014 2.06736e-014
lhumerus -35.3102 14.9407 80.1088
lradius 33.8961
lwrist -28.2031
lhand -13.6055 17.0384
lfingers 7.12502
lthumb 12.5095 46.6439
rfemur -8.63668 3.03257 31.4446
rtibia 14.0784
rfoot -7.57263 -11.753
rtoes 11.9037
lfemur -25.833 1.05089 -3.86547
ltibia 46.6733
lfoot -5.39056 6.12972
ltoes -18.8747
435
root -19.5729 18.0976 3.97054 115.061 -80.767 -107.594
lowerback 0.964798 2.6739 6.15499
upperback -1.63045 3.64925 4.36853
thorax -2.12444 1.7017 0.966684
lowerneck -16.2792 1.71256 -0.991785
upperneck 13.2377 1.84428 4.10526
head 6.65828 1.19309 1.67731
rclavicle -9.29318e-015 -7.95139e-016
rhumerus -23.3893 -9.8578 -79.9542
rradius 27.7444
rwrist 13.5466
rhand -16.0352 -30.3238
rfingers 7.12502
rthumb 10.1662 -60.0582
lclavicle -9.29318e-015 -7.95139e-016
lhumerus -35.363 14.7309 80.4195
lradius 33.9921
lwrist -28.1691
lhand -13.5913 16.9512
lfingers 7.12502
lthumb 12.5231 46.5559
rfemur -8.21674 3.0988 31.5095
rtibia 14.0372
rfoot -7.88711 -11.8679
rtoes 11.5073
lfemur -26.2324 0.986919 -3.70483
ltibia 45.4718
lfoot -5.72301 6.36399
ltoes -18.5979
436
root -19.6884 18.0924 3.96901 114.992 -80.7373 -107.489
lowerback 0.921206 2.7381 6.24033
upperback -1.65943 3.73419 4.311
thorax -2.11856 1.74223 0.860271
lowerneck -16.3304 1.61547 -1.09627
upperneck 13.3331 1.71589 4.21237
head 6.69938 1.13603 1.71792
rclavicle -1.66482e-014 0
rhumerus -22.9295 -9.07807 -80.3064
rradius 28.3445
rwrist 13.1147
rhand -16.0397 -30.2077
rfingers 7.12502
rthumb 10.1618 -59.9423
lclavicle -1.66482e-014 0
lhumerus -35.4228 14.5337 80.7115
lradius 34.0934
lwrist -28.1282
lhand -13.5733 16.8694
lfingers 7.12502
lthumb 12.5405 46.473
rfemur -7.80093 3.16065 31.5655
rtibia 13.9984
rfoot -8.19907 -11.9916
rtoes 11.104
lfemur -26.6024 0.907328 -3.55083
ltibia 44.1896
lfoot -6.01173 6.57975
ltoes -18.334
